<?xml version="1.0" ?>
<svg id="Icons" style="enable-background:new 0 0 32 32;" version="1.1" viewBox="0 0 32 32" xml:space="preserve"
     xmlns="http://www.w3.org/2000/svg"><path d="M30,9.9C30,9.9,30,9.8,30,9.9c0-0.2-0.1-0.3-0.1-0.4c0,0,0,0,0,0c0,0,0,0,0,0c-0.1-0.1-0.1-0.2-0.2-0.3c0,0,0,0,0,0  c0,0,0,0,0,0l-13-9c-0.3-0.2-0.8-0.2-1.1,0l-13,9c0,0,0,0,0,0c0,0,0,0,0,0C2.3,9.3,2.2,9.4,2.2,9.4c0,0,0,0,0,0c0,0,0,0,0,0  C2.1,9.6,2,9.7,2,9.8c0,0,0,0,0,0.1c0,0,0,0.1,0,0.1v13c0,2.8,2.2,5,5,5h18c2.8,0,5-2.2,5-5V10C30,10,30,9.9,30,9.9z M16,2.2  L27.2,10L16,16.8L4.8,10L16,2.2z"/></svg>
