<?xml version="1.0" ?>
<svg id="Icons" style="enable-background:new 0 0 32 32;" version="1.1" viewBox="0 0 32 32" xml:space="preserve"
     xmlns="http://www.w3.org/2000/svg"><path d="M15.6,24.9c-0.5-0.2-0.7-0.8-0.5-1.3c0.2-0.5,0.8-0.7,1.3-0.5l6.1,2.6l1.9,0.8c0.2,0.1,0.5,0.2,0.8,0.2c0.4,0,0.7-0.1,1-0.3  c0.5-0.3,0.9-0.9,1-1.5l1.7-20.8c0.1-0.7-0.3-1.4-0.9-1.8c-0.6-0.4-1.4-0.4-2-0.1L3.4,14.1c-0.7,0.4-1.1,1.1-1,1.9  c0,0.8,0.5,1.4,1.2,1.7l8.4,3.5v6c0,0.8,0.5,1.6,1.3,1.9c0.2,0.1,0.5,0.1,0.7,0.1c0.6,0,1.1-0.2,1.5-0.7l2.4-2.8L15.6,24.9z"/></svg>
