<svg xmlns="http://www.w3.org/2000/svg" viewBox="0 0 16 16">
 <defs id="defs10">
    <clipPath
       id="clip0_1035_7">
      <rect
         id="rect8"
         height="64"
         width="64"
         x="0"
         y="0"
         style="fill:#ffffff" />
    </clipPath>
 </defs>
  <g
     transform="translate(0,-1.1875)"
     id="g4555">
    <path
       style="fill:#a5bf3c;fill-opacity:0.43316836;stroke-width:0.91023588"
       d="m 15.991123,6.6875 0.02344,6.818744 H 0.0067485 V 3.5687442 h 7.003418 l 1.3006337,1.65625 6.6579498,0.015625 c 0.883594,0.7472662 0.931904,0.5063025 1.022373,1.4468808 z"
       id="path2" />
    <path
       d="M 14.655185,5.1078067 H 7.6056254 l -1.1901856,-2 H 0.006748 v 3 h 14.648437 z"
       id="path4"
       style="opacity:0.43000004;stroke-width:0.95683193" />
    <g
       id="g4548"
       transform="matrix(0.66527125,0,0,0.66721827,-11.86575,5.9630794)">
      <path
         style="fill:#a5bf3c;stroke-width:0.37318423"
         d="M 29.785844,6.0093563 41.73733,0.22862059 C 41.217709,-1.0908842 39.572227,-2.0333983 37.580319,-2.0333983 H 21.991406 c -1.991923,0 -3.637419,0.9425141 -4.157048,2.26201889 z"
         id="path2-9" />
      <path
         style="fill:#a5bf3c;stroke-width:0.37318423"
         d="m 30.387902,8.6637411 c -0.171963,0.061837 -0.343926,0.1237105 -0.515927,0.1237105 -0.171963,0 -0.343926,-0.061874 -0.51589,-0.1237105 L 17.834358,3.1587512 v 8.1028368 c 0,1.731911 1.89163,3.09269 4.299157,3.09269 h 15.476958 c 2.407523,0 4.299157,-1.360779 4.299157,-3.09269 V 3.1587512 Z"
         id="path4-7" />
    </g>
  </g>
</svg>
