<svg width="70" height="70" viewBox="0 0 70 70" fill="none" xmlns="http://www.w3.org/2000/svg">
<rect width="70" height="70" fill="#A5BF3C"/>
<path d="M36.5438 34.5117C36.1326 34.872 35.5984 35.0714 35.0446 35.0714C34.4908 35.0714 33.9566 34.872 33.5455 34.5117L14.5713 17.7604C15.3158 17.2652 16.1972 17.0001 17.0997 17H52.9C53.8025 17.0001 54.6839 17.2652 55.4284 17.7604L36.5438 34.5117Z" fill="white"/>
<path d="M57 21.7143V45.6666C57 47.441 56.3046 49.1428 55.0669 50.3975C53.8292 51.6523 52.1504 52.3572 50.4 52.3572H19.6C17.8496 52.3572 16.1708 51.6523 14.9331 50.3975C13.6954 49.1428 13 47.441 13 45.6666V21.7143L32.096 39.3774C32.9013 40.0865 33.9333 40.4748 35 40.4702C36.08 40.468 37.1214 40.0631 37.926 39.3328L57 21.7143Z" fill="white"/>
</svg>
